# xmcd
#
# Track frame offsets: 
#        150
#        9904
#        20950
#        33593
#        45113
#        56517
#        65457
#        76165
#        87786
#        96984
#        107504
#        119359
#        129051
#        137051
#        146844
#        156564
#        166155
#        177000
#        186580
#        194218
#        205744
#        216662
#        227073
#        236079
#        245566
#        255753
#        265149
#        276533
#        288000
#        299917
#        311897
#        321044
#        329053
#        342147
#
# Disc length: 4673 seconds
#
# Revision: 0
# Processed by: cddbd v1.5.2PL0 Copyright (c) Steve Scherf et al.
# Submitted via: ExactAudioCopyFreeDBPlugin 1.0
#
DISCID=08123f22
DTITLE=Marvin Rainwater - A Whole Lotta Marvin
DYEAR=2015
DGENRE=Country
TTITLE0=Tennessee Houn' Dog Yodel
TTITLE1=Mr. Blues
TTITLE2=Why Did You Have To Go and Leave Me (Lonesome Blues)
TTITLE3=Get Off The Stool
TTITLE4=Gonna Find Me A Bluebird
TTITLE5=So You Think You've Got Troubles
TTITLE6=My Brand Of Blues
TTITLE7=The Magesty Of Love
TTITLE8=You, My Darlin' You
TTITLE9=Lucky Star
TTITLE10=Whole Lotta Woman
TTITLE11=Baby, Don't Go
TTITLE12=That's The Way I Feel
TTITLE13=Two Fools In Love
TTITLE14=Down In The Cellar
TTITLE15=Crazy Love
TTITLE16=Gamblin' Man
TTITLE17=Moanin' The Blues
TTITLE18=I Dig You Baby
TTITLE19=Dance Me Daddy
TTITLE20=Nothin' Needs Nothin' (Like I Need You)
TTITLE21=(There's Always) A Need For Love
TTITLE22=(Don't Be) Late For Love
TTITLE23=The Last Time
TTITLE24=Can I Count On Your Love
TTITLE25=Love Me Baby (Like There's No Tomorrow)
TTITLE26=Half Breed
TTITLE27=The Valley Of The Moon
TTITLE28=The Pale Faced Indian
TTITLE29=Hard Luck Blues
TTITLE30=I Can't Forget
TTITLE31=Boo Hoo
TTITLE32=Tough Top Cat
TTITLE33=(There's A) Honky Tonk In Your Heart
EXTD=
EXTT0=
EXTT1=
EXTT2=
EXTT3=
EXTT4=
EXTT5=
EXTT6=
EXTT7=
EXTT8=
EXTT9=
EXTT10=
EXTT11=
EXTT12=
EXTT13=
EXTT14=
EXTT15=
EXTT16=
EXTT17=
EXTT18=
EXTT19=
EXTT20=
EXTT21=
EXTT22=
EXTT23=
EXTT24=
EXTT25=
EXTT26=
EXTT27=
EXTT28=
EXTT29=
EXTT30=
EXTT31=
EXTT32=
EXTT33=
PLAYORDER=
